<svg width="21" height="21" viewBox="0 0 41 41" fill="none" xmlns="http://www.w3.org/2000/svg">
<path fill-rule="evenodd" clip-rule="evenodd" d="M24.8682 20.6445L39.9905 5.52215C41.1076 4.40505 41.1076 2.5994 39.9905 1.4823C38.8734 0.365194 37.0678 0.365194 35.9507 1.4823L20.8284 16.6046L5.70605 1.4823C4.58895 0.365194 2.7833 0.365194 1.6662 1.4823C0.549093 2.5994 0.549093 4.40505 1.6662 5.52215L16.7885 20.6445L1.6662 35.7668C0.549093 36.8839 0.549093 38.6895 1.6662 39.8066C2.22332 40.3638 2.95472 40.6438 3.68612 40.6438C4.41753 40.6438 5.14893 40.3638 5.70605 39.8066L20.8284 24.6843L35.9507 39.8066C36.5078 40.3638 37.2392 40.6438 37.9706 40.6438C38.702 40.6438 39.4334 40.3638 39.9905 39.8066C41.1076 38.6895 41.1076 36.8839 39.9905 35.7668L24.8682 20.6445Z" fill="black"/>
</svg>
