<svg width="70" height="70" viewBox="0 0 70 70" fill="none" xmlns="http://www.w3.org/2000/svg">
<path d="M0 0V70H70V0H0ZM38.0938 54.5938C38.0938 61.4062 34.0938 64.5156 28.2656 64.5156C23 64.5156 19.9531 61.7969 18.3906 58.5L23.75 55.2656C24.7812 57.0938 25.7188 58.6406 27.9844 58.6406C30.1406 58.6406 31.5156 57.7969 31.5156 54.5V32.1406H38.0938V54.5938ZM53.6562 64.5156C47.5469 64.5156 43.5938 61.6094 41.6719 57.7969L47.0312 54.7031C48.4375 57 50.2812 58.7031 53.5156 58.7031C56.2344 58.7031 57.9844 57.3438 57.9844 55.4531C57.9844 53.2031 56.2031 52.4062 53.1875 51.0781L51.5469 50.375C46.7969 48.3594 43.6562 45.8125 43.6562 40.4531C43.6562 35.5156 47.4219 31.7656 53.2812 31.7656C57.4688 31.7656 60.4687 33.2188 62.625 37.0312L57.5 40.3125C56.375 38.2969 55.1562 37.5 53.2656 37.5C51.3438 37.5 50.125 38.7188 50.125 40.3125C50.125 42.2812 51.3438 43.0781 54.1719 44.3125L55.8125 45.0156C61.4062 47.4062 64.5469 49.8594 64.5469 55.3594C64.5469 61.2656 59.8906 64.5156 53.6562 64.5156Z" fill="black"/>
</svg>
