<svg width="70" height="42" viewBox="0 0 70 42" fill="none" xmlns="http://www.w3.org/2000/svg">
<path d="M35 0C25.6667 0 19.8333 4.66667 17.5 14C21 9.33333 25.0833 7.58333 29.75 8.75C32.4129 9.415 34.3146 11.3458 36.4233 13.4867C39.8563 16.9692 43.8258 21 52.5 21C61.8333 21 67.6667 16.3333 70 7C66.5 11.6667 62.4167 13.4167 57.75 12.25C55.0871 11.585 53.1854 9.65417 51.0767 7.51333C47.6467 4.03083 43.6771 0 35 0ZM17.5 21C8.16667 21 2.33333 25.6667 0 35C3.5 30.3333 7.58333 28.5833 12.25 29.75C14.9129 30.415 16.8146 32.3458 18.9233 34.4867C22.3563 37.9692 26.3258 42 35 42C44.3333 42 50.1667 37.3333 52.5 28C49 32.6667 44.9167 34.4167 40.25 33.25C37.5871 32.585 35.6854 30.6542 33.5767 28.5133C30.1467 25.0308 26.1771 21 17.5 21Z" fill="#670000"/>
</svg>
