<svg width="70" height="53" viewBox="0 0 70 53" fill="none" xmlns="http://www.w3.org/2000/svg">
<path d="M33.0137 39.6944C32.9809 39.76 32.9481 39.8125 33.0137 39.6944V39.6944ZM60.2627 30.1786C58.0628 30.1779 55.8923 30.6831 53.9188 31.6552C53.2735 30.3536 52.6063 29.2161 52.4969 28.363C52.3657 27.3677 52.2235 26.777 52.3766 25.5958C52.5298 24.4145 53.2188 22.7411 53.2079 22.6207C53.1969 22.5004 53.0548 21.8989 51.6438 21.8879C50.2329 21.877 49.0188 22.1614 48.8777 22.5332C48.6285 23.2128 48.4346 23.9115 48.298 24.6223C48.0464 25.902 45.4772 30.474 44.0225 32.8584C43.5412 31.9287 43.1365 31.1083 43.049 30.4521C42.9178 29.4568 42.7756 28.8661 42.9287 27.6849C43.0818 26.5036 43.7709 24.8301 43.76 24.7098C43.749 24.5895 43.6068 23.9879 42.197 23.977C40.7871 23.9661 39.5719 24.2504 39.4298 24.6223C39.2876 24.9942 39.1344 25.8692 38.8501 26.7114C38.5657 27.5536 35.1433 35.1662 34.2475 37.1459C33.7881 38.1522 33.3944 38.9616 33.11 39.5084C33.0662 39.5959 33.0334 39.6506 33.0116 39.6944C33.0444 39.6397 33.0662 39.585 33.0662 39.6069C32.8256 40.0772 32.6834 40.3397 32.6834 40.3397V40.3506C32.4975 40.7006 32.2897 41.0178 32.1912 41.0178C32.1256 41.0178 31.9834 40.0991 32.224 38.8412C32.7381 36.1943 33.9522 32.0818 33.9413 31.9396C33.9303 31.863 34.1709 31.1521 33.1428 30.7693C32.1475 30.4083 31.7865 31.0099 31.699 31.0099C31.6115 31.0099 31.5459 31.2286 31.5459 31.2286C31.5459 31.2286 32.6506 26.5911 29.4251 26.5911C27.4126 26.5911 24.6126 28.8005 23.2366 30.8021C22.3725 31.2724 20.5022 32.2896 18.5334 33.3724C17.7787 33.7881 17.0022 34.2146 16.2693 34.6193C16.2146 34.5646 16.1709 34.5099 16.1162 34.4552C12.2016 30.2771 4.97404 27.3239 5.2803 21.7129C5.38967 19.6676 6.10062 14.2972 19.1787 7.77838C29.8976 2.44081 38.4672 3.90646 39.9427 7.16587C42.0646 11.8144 35.361 20.466 24.2297 21.7129C19.987 22.1832 17.7568 20.5426 17.199 19.9301C16.6193 19.2848 16.5318 19.2519 16.3131 19.3723C15.9521 19.5691 16.1818 20.1379 16.3131 20.477C16.6412 21.341 18.0084 22.8723 20.337 23.6379C22.3824 24.3051 27.3568 24.677 33.3714 22.3473C40.1287 19.7441 45.3886 12.4925 43.8464 6.42211C42.2757 0.253289 32.0469 -1.77017 22.3747 1.66424C16.6117 3.70958 10.3794 6.92524 5.89609 11.1144C0.570555 16.1019 -0.281487 20.4441 0.0685173 22.2598C1.31431 28.7021 10.1935 32.9021 13.7471 36.0084C13.5721 36.1068 13.408 36.1943 13.2549 36.2818C11.4732 37.1678 4.70388 40.7116 3.00965 44.4522C1.09556 48.696 3.32684 51.7367 4.79139 52.1523C9.36222 53.4211 14.0424 51.1351 16.557 47.3835C19.0716 43.6319 18.7664 38.7319 17.607 36.5006C17.5961 36.4678 17.5742 36.4459 17.5633 36.4131C18.0226 36.1396 18.493 35.8662 18.9633 35.5928C19.87 35.0568 20.7559 34.5646 21.5325 34.1381C21.095 35.3193 20.7778 36.7412 20.6138 38.7975C20.4169 41.2038 21.4122 44.321 22.7028 45.546C23.2716 46.082 23.9596 46.0929 24.3861 46.0929C25.8955 46.0929 26.5737 44.846 27.3273 43.3585C28.257 41.5428 29.0773 39.4319 29.0773 39.4319C29.0773 39.4319 28.0492 45.1413 30.8601 45.1413C31.8872 45.1413 32.9153 43.8179 33.3758 43.1397V43.1507C33.3758 43.1507 33.3977 43.1069 33.4523 43.0194C33.5617 42.8553 33.6164 42.7569 33.6164 42.7569V42.7241C34.032 42.0131 34.9399 40.3834 36.306 37.6928C38.0779 34.2146 39.7721 29.8724 39.7721 29.8724C39.9358 30.8269 40.1624 31.7696 40.4502 32.6943C40.7565 33.7334 41.4018 34.8709 41.9159 35.9756C41.5003 36.5443 41.2487 36.8725 41.2487 36.8725C41.2495 36.8809 41.2534 36.8887 41.2596 36.8943C40.9315 37.3318 40.5596 37.8022 40.1768 38.2615C38.7779 39.9241 37.1143 41.8272 36.8955 42.3741C36.633 43.0194 36.6986 43.5007 37.2018 43.8725C37.5736 44.1569 38.2299 44.2007 38.9179 44.146C40.1757 44.0585 41.0616 43.7522 41.4882 43.5554C42.2746 43.2734 43.0179 42.8832 43.6965 42.396C45.0637 41.3897 45.895 39.9459 45.8184 38.0428C45.7747 36.9928 45.4356 35.9428 45.02 34.9584C45.1403 34.7834 45.2715 34.5974 45.3919 34.4115C47.5564 31.2505 49.2299 27.7811 49.2299 27.7811C49.3936 28.7356 49.6201 29.6783 49.908 30.603C50.1705 31.489 50.6835 32.4624 51.1538 33.414C49.1205 35.0656 47.8627 36.9797 47.4252 38.2375C46.6158 40.5672 47.2502 41.6172 48.4424 41.8578C48.9783 41.9672 49.7439 41.7156 50.3127 41.475C51.1574 41.1937 51.9538 40.7842 52.6741 40.2609C54.0413 39.2547 55.3637 37.8437 55.2762 35.9296C55.2434 35.0656 55.0028 34.2015 54.6856 33.3702C56.4028 32.6484 58.633 32.2546 61.4767 32.5827C67.5668 33.2937 68.759 37.1 68.5293 38.6859C68.2996 40.2719 67.0199 41.1578 66.5934 41.4203C66.1668 41.6828 66.0355 41.7813 66.0684 41.9781C66.123 42.2625 66.3199 42.2516 66.6809 42.186C67.184 42.0985 69.8736 40.8953 69.9939 37.9531C70.1689 34.2343 66.5934 30.1436 60.2594 30.1764L60.2627 30.1786ZM13.3205 46.0054C11.3091 48.2038 8.48721 49.0351 7.27423 48.3351C5.97265 47.5782 6.48672 44.3429 8.96846 42C10.4779 40.5781 12.4237 39.2656 13.7143 38.4562C14.0096 38.2812 14.4362 38.0187 14.9612 37.7015C15.0487 37.6469 15.0924 37.625 15.0924 37.625C15.1909 37.5593 15.3003 37.5047 15.4096 37.439C16.3164 40.7641 15.4424 43.6954 13.3205 46.0032V46.0054ZM28.0163 36.0084C27.3163 37.7256 25.8408 42.1007 24.944 41.871C24.1783 41.6741 23.708 38.3381 24.7908 35.0568C25.3377 33.4052 26.4971 31.4365 27.1862 30.6708C28.2898 29.4349 29.5039 29.0411 29.7882 29.5333C30.1711 30.1786 28.4538 34.9365 28.0163 36.0084ZM40.1571 41.8053C39.8618 41.9585 39.5884 42.0569 39.4571 41.9803C39.3587 41.9257 39.5774 41.7178 39.5774 41.7178C39.5774 41.7178 41.0977 40.0881 41.6993 39.3444C42.0493 38.9069 42.454 38.3928 42.8904 37.824C42.8904 37.8787 42.9014 37.9334 42.9014 37.999C42.8871 39.9569 41.007 41.2803 40.1538 41.8053H40.1571ZM49.5175 39.6725C49.2988 39.5194 49.3316 39.0053 50.0644 37.4084C50.3488 36.785 51.004 35.735 52.1426 34.7287C52.2715 35.1096 52.3415 35.5079 52.3504 35.91C52.3394 38.3709 50.5785 39.2897 49.5186 39.6725H49.5175Z" fill="black"/>
</svg>
